<mxfile host="app.diagrams.net" agent="Mozilla/5.0 (Windows NT 10.0; Win64; x64) AppleWebKit/537.36 (KHTML, like Gecko) Chrome/131.0.0.0 Safari/537.36" version="26.0.3">
  <diagram name="Seite-1" id="cwkrJw7zeOfz96LjwUsd">
    <mxGraphModel dx="1027" dy="943" grid="1" gridSize="10" guides="1" tooltips="1" connect="1" arrows="1" fold="1" page="1" pageScale="1" pageWidth="1654" pageHeight="1169" math="0" shadow="0">
      <root>
        <mxCell id="0" />
        <mxCell id="1" parent="0" />
        <mxCell id="NxgZPjBIW7j_fwVD6QKq-1" value="Arbeitsplan" style="rounded=0;whiteSpace=wrap;html=1;fillColor=#FFD966;strokeColor=#d6b656;strokeWidth=2;" vertex="1" parent="1">
          <mxGeometry x="360" y="200" width="200" height="30" as="geometry" />
        </mxCell>
        <mxCell id="NxgZPjBIW7j_fwVD6QKq-2" value="PRG" style="rounded=0;whiteSpace=wrap;html=1;fillColor=#FFD966;strokeColor=#d6b656;strokeWidth=2;" vertex="1" parent="1">
          <mxGeometry x="320" y="200" width="40" height="30" as="geometry" />
        </mxCell>
        <mxCell id="NxgZPjBIW7j_fwVD6QKq-3" value="" style="rounded=0;whiteSpace=wrap;html=1;fillColor=#FFE599;strokeColor=#d6b656;strokeWidth=2;" vertex="1" parent="1">
          <mxGeometry x="320" y="230" width="240" height="110" as="geometry" />
        </mxCell>
        <mxCell id="NxgZPjBIW7j_fwVD6QKq-4" value="Variablen:" style="text;html=1;align=center;verticalAlign=middle;whiteSpace=wrap;rounded=0;fontStyle=4" vertex="1" parent="1">
          <mxGeometry x="330" y="230" width="60" height="30" as="geometry" />
        </mxCell>
        <mxCell id="NxgZPjBIW7j_fwVD6QKq-5" value="&lt;ul&gt;&lt;li&gt;Bedienvariablen&lt;/li&gt;&lt;li&gt;Prozessvariablen&lt;/li&gt;&lt;li&gt;Skill-Instanzen erstellen&lt;/li&gt;&lt;li&gt;Sequenz-Instanz erstellen&lt;/li&gt;&lt;/ul&gt;" style="text;html=1;align=left;verticalAlign=middle;whiteSpace=wrap;rounded=0;fontStyle=0" vertex="1" parent="1">
          <mxGeometry x="320" y="260" width="200" height="60" as="geometry" />
        </mxCell>
        <mxCell id="NxgZPjBIW7j_fwVD6QKq-6" value="" style="rounded=0;whiteSpace=wrap;html=1;fillColor=#FFF2CC;strokeColor=#d6b656;strokeWidth=2;" vertex="1" parent="1">
          <mxGeometry x="320" y="340" width="240" height="240" as="geometry" />
        </mxCell>
        <mxCell id="NxgZPjBIW7j_fwVD6QKq-11" style="edgeStyle=orthogonalEdgeStyle;rounded=0;orthogonalLoop=1;jettySize=auto;html=1;entryX=0.5;entryY=0;entryDx=0;entryDy=0;endArrow=none;endFill=0;" edge="1" parent="1" source="NxgZPjBIW7j_fwVD6QKq-7" target="NxgZPjBIW7j_fwVD6QKq-8">
          <mxGeometry relative="1" as="geometry" />
        </mxCell>
        <mxCell id="NxgZPjBIW7j_fwVD6QKq-7" value="INIT" style="rounded=0;whiteSpace=wrap;html=1;fillColor=#dae8fc;strokeColor=#6c8ebf;" vertex="1" parent="1">
          <mxGeometry x="340" y="350" width="90" height="30" as="geometry" />
        </mxCell>
        <mxCell id="NxgZPjBIW7j_fwVD6QKq-12" style="edgeStyle=orthogonalEdgeStyle;rounded=0;orthogonalLoop=1;jettySize=auto;html=1;entryX=0.5;entryY=0;entryDx=0;entryDy=0;endArrow=none;endFill=0;" edge="1" parent="1" source="NxgZPjBIW7j_fwVD6QKq-8" target="NxgZPjBIW7j_fwVD6QKq-9">
          <mxGeometry relative="1" as="geometry" />
        </mxCell>
        <mxCell id="NxgZPjBIW7j_fwVD6QKq-19" style="edgeStyle=orthogonalEdgeStyle;rounded=0;orthogonalLoop=1;jettySize=auto;html=1;entryX=0;entryY=0.5;entryDx=0;entryDy=0;endArrow=none;endFill=0;" edge="1" parent="1" source="NxgZPjBIW7j_fwVD6QKq-8" target="NxgZPjBIW7j_fwVD6QKq-17">
          <mxGeometry relative="1" as="geometry" />
        </mxCell>
        <mxCell id="NxgZPjBIW7j_fwVD6QKq-8" value="Schritt 1" style="rounded=0;whiteSpace=wrap;html=1;fillColor=#dae8fc;strokeColor=#6c8ebf;" vertex="1" parent="1">
          <mxGeometry x="340" y="410" width="90" height="30" as="geometry" />
        </mxCell>
        <mxCell id="NxgZPjBIW7j_fwVD6QKq-13" style="edgeStyle=orthogonalEdgeStyle;rounded=0;orthogonalLoop=1;jettySize=auto;html=1;endArrow=none;endFill=0;" edge="1" parent="1" source="NxgZPjBIW7j_fwVD6QKq-9" target="NxgZPjBIW7j_fwVD6QKq-10">
          <mxGeometry relative="1" as="geometry" />
        </mxCell>
        <mxCell id="NxgZPjBIW7j_fwVD6QKq-20" style="edgeStyle=orthogonalEdgeStyle;rounded=0;orthogonalLoop=1;jettySize=auto;html=1;entryX=0;entryY=0.5;entryDx=0;entryDy=0;endArrow=none;endFill=0;" edge="1" parent="1" source="NxgZPjBIW7j_fwVD6QKq-9" target="NxgZPjBIW7j_fwVD6QKq-18">
          <mxGeometry relative="1" as="geometry" />
        </mxCell>
        <mxCell id="NxgZPjBIW7j_fwVD6QKq-9" value="Schritt 2" style="rounded=0;whiteSpace=wrap;html=1;fillColor=#dae8fc;strokeColor=#6c8ebf;" vertex="1" parent="1">
          <mxGeometry x="340" y="470" width="90" height="30" as="geometry" />
        </mxCell>
        <mxCell id="NxgZPjBIW7j_fwVD6QKq-10" value="Finished" style="rounded=0;whiteSpace=wrap;html=1;fillColor=#dae8fc;strokeColor=#6c8ebf;" vertex="1" parent="1">
          <mxGeometry x="340" y="530" width="90" height="30" as="geometry" />
        </mxCell>
        <mxCell id="NxgZPjBIW7j_fwVD6QKq-14" value="" style="endArrow=none;html=1;rounded=0;" edge="1" parent="1">
          <mxGeometry width="50" height="50" relative="1" as="geometry">
            <mxPoint x="380" y="395" as="sourcePoint" />
            <mxPoint x="390" y="395" as="targetPoint" />
          </mxGeometry>
        </mxCell>
        <mxCell id="NxgZPjBIW7j_fwVD6QKq-15" value="" style="endArrow=none;html=1;rounded=0;" edge="1" parent="1">
          <mxGeometry width="50" height="50" relative="1" as="geometry">
            <mxPoint x="380" y="456" as="sourcePoint" />
            <mxPoint x="390" y="456" as="targetPoint" />
          </mxGeometry>
        </mxCell>
        <mxCell id="NxgZPjBIW7j_fwVD6QKq-16" value="" style="endArrow=none;html=1;rounded=0;" edge="1" parent="1">
          <mxGeometry width="50" height="50" relative="1" as="geometry">
            <mxPoint x="380" y="515" as="sourcePoint" />
            <mxPoint x="390" y="515" as="targetPoint" />
          </mxGeometry>
        </mxCell>
        <mxCell id="NxgZPjBIW7j_fwVD6QKq-21" style="edgeStyle=orthogonalEdgeStyle;rounded=0;orthogonalLoop=1;jettySize=auto;html=1;endArrow=none;endFill=0;dashed=1;" edge="1" parent="1" source="NxgZPjBIW7j_fwVD6QKq-17">
          <mxGeometry relative="1" as="geometry">
            <mxPoint x="580" y="425" as="targetPoint" />
          </mxGeometry>
        </mxCell>
        <mxCell id="NxgZPjBIW7j_fwVD6QKq-17" value="&amp;nbsp;Skill" style="rounded=0;whiteSpace=wrap;html=1;fillColor=#dae8fc;strokeColor=#6c8ebf;fontSize=10;align=left;" vertex="1" parent="1">
          <mxGeometry x="450" y="417.5" width="60" height="15" as="geometry" />
        </mxCell>
        <mxCell id="NxgZPjBIW7j_fwVD6QKq-22" style="edgeStyle=orthogonalEdgeStyle;rounded=0;orthogonalLoop=1;jettySize=auto;html=1;endArrow=none;endFill=0;dashed=1;" edge="1" parent="1" source="NxgZPjBIW7j_fwVD6QKq-18">
          <mxGeometry relative="1" as="geometry">
            <mxPoint x="580" y="485" as="targetPoint" />
          </mxGeometry>
        </mxCell>
        <mxCell id="NxgZPjBIW7j_fwVD6QKq-18" value="&amp;nbsp;Sequenz" style="rounded=0;whiteSpace=wrap;html=1;fillColor=#dae8fc;strokeColor=#6c8ebf;fontSize=10;align=left;" vertex="1" parent="1">
          <mxGeometry x="450" y="477.5" width="60" height="15" as="geometry" />
        </mxCell>
        <mxCell id="NxgZPjBIW7j_fwVD6QKq-24" value="Skill" style="rounded=0;whiteSpace=wrap;html=1;fillColor=#FFD966;strokeColor=#d6b656;strokeWidth=2;" vertex="1" parent="1">
          <mxGeometry x="620" y="410" width="80" height="30" as="geometry" />
        </mxCell>
        <mxCell id="NxgZPjBIW7j_fwVD6QKq-25" value="FB" style="rounded=0;whiteSpace=wrap;html=1;fillColor=#FFD966;strokeColor=#d6b656;strokeWidth=2;" vertex="1" parent="1">
          <mxGeometry x="580" y="410" width="40" height="30" as="geometry" />
        </mxCell>
        <mxCell id="NxgZPjBIW7j_fwVD6QKq-26" value="Sequenz" style="rounded=0;whiteSpace=wrap;html=1;fillColor=#FFD966;strokeColor=#d6b656;strokeWidth=2;" vertex="1" parent="1">
          <mxGeometry x="620" y="470" width="80" height="30" as="geometry" />
        </mxCell>
        <mxCell id="NxgZPjBIW7j_fwVD6QKq-27" value="FB" style="rounded=0;whiteSpace=wrap;html=1;fillColor=#FFD966;strokeColor=#d6b656;strokeWidth=2;" vertex="1" parent="1">
          <mxGeometry x="580" y="470" width="40" height="30" as="geometry" />
        </mxCell>
      </root>
    </mxGraphModel>
  </diagram>
</mxfile>
